<?xml version="1.0" encoding="UTF-8" standalone="no"?>
<!-- Created with Inkscape (http://www.inkscape.org/) -->

<svg
   xmlns:dc="http://purl.org/dc/elements/1.1/"
   xmlns:cc="http://creativecommons.org/ns#"
   xmlns:rdf="http://www.w3.org/1999/02/22-rdf-syntax-ns#"
   xmlns:svg="http://www.w3.org/2000/svg"
   xmlns="http://www.w3.org/2000/svg"
   xmlns:sodipodi="http://sodipodi.sourceforge.net/DTD/sodipodi-0.dtd"
   xmlns:inkscape="http://www.inkscape.org/namespaces/inkscape"
   width="340mm"
   height="144.02699mm"
   viewBox="0 0 340 144.02699"
   version="1.1"
   id="svg4598"
   inkscape:version="0.92.1 r15371"
   sodipodi:docname="logo.svg"
   inkscape:export-filename="/home/lincoln/src/github.com/clarete/miartstudio.com.br/src/imgs/logo/logo.png"
   inkscape:export-xdpi="25.4"
   inkscape:export-ydpi="25.4">
  <defs
     id="defs4592" />
  <sodipodi:namedview
     id="base"
     pagecolor="#ffffff"
     bordercolor="#666666"
     borderopacity="1.0"
     inkscape:pageopacity="0.0"
     inkscape:pageshadow="2"
     inkscape:zoom="0.64228866"
     inkscape:cx="643.12213"
     inkscape:cy="212.13169"
     inkscape:document-units="mm"
     inkscape:current-layer="layer1"
     showgrid="false"
     inkscape:window-width="1440"
     inkscape:window-height="868"
     inkscape:window-x="0"
     inkscape:window-y="0"
     inkscape:window-maximized="0"
     showguides="true"
     inkscape:guide-bbox="true"
     scale-x="2.4" />
  <metadata
     id="metadata4595">
    <rdf:RDF>
      <cc:Work
         rdf:about="">
        <dc:format>image/svg+xml</dc:format>
        <dc:type
           rdf:resource="http://purl.org/dc/dcmitype/StillImage" />
        <dc:title></dc:title>
      </cc:Work>
    </rdf:RDF>
  </metadata>
  <g
     inkscape:label="Layer 1"
     inkscape:groupmode="layer"
     id="layer1"
     transform="translate(0,-152.973)">
    <text
       xml:space="preserve"
       style="font-style:normal;font-weight:normal;font-size:10.58333302px;line-height:1.25;font-family:sans-serif;letter-spacing:0px;word-spacing:0px;fill:#000000;fill-opacity:1;stroke:none;stroke-width:0.26458332"
       x="207.87871"
       y="248.56836"
       id="text4522"><tspan
         sodipodi:role="line"
         id="tspan4520"
         x="207.87871"
         y="257.93213"
         style="stroke-width:0.26458332"></tspan></text>
    <rect
       style="opacity:0.99823531;fill:#edd400;fill-opacity:1;stroke:none;stroke-width:5.0616188;stroke-miterlimit:4;stroke-dasharray:none;stroke-opacity:0.39922485"
       id="rect4514"
       width="134.97801"
       height="143.4865"
       x="0.52916664"
       y="153.50217"
       inkscape:export-xdpi="25.4"
       inkscape:export-ydpi="25.4" />
    <rect
       style="opacity:0.99823531;fill:#000000;fill-opacity:1;stroke:none;stroke-width:2.31698489;stroke-miterlimit:4;stroke-dasharray:none;stroke-opacity:1"
       id="rect4532"
       width="210.99203"
       height="144.02699"
       x="128.70869"
       y="152.97301" />
    <path
       style="fill:#000000;stroke-width:0.30676669"
       d="M 0.2702472,152.97307 H 61.543235 129.03188 l -0.007,27.37892 -0.007,27.37893 -1.262,-2.30075 c -4.16117,-7.58625 -7.83019,-12.78538 -12.20054,-17.28864 -9.02954,-9.30411 -19.235568,-13.43701 -30.071353,-12.17728 -3.205165,0.37262 -7.248555,1.58754 -9.438222,2.83589 -1.635044,0.93216 -4.071749,2.77956 -4.071749,3.08702 0,0.47589 2.592228,1.44225 3.887051,1.44906 0.703747,0.004 2.498332,-0.3016 3.987965,-0.67846 2.392189,-0.6052 3.496436,-0.68579 9.457303,-0.69023 6.146287,-0.004 6.967157,0.0582 9.193757,0.70277 1.3447,0.38929 3.097698,1.06309 3.895578,1.49736 1.57922,0.85952 2.93198,2.12239 2.61403,2.44034 -0.10988,0.10988 -1.41035,-0.13115 -2.88993,-0.53563 -4.703218,-1.28575 -9.574565,-0.86207 -13.733742,1.19447 -1.683627,0.83249 -4.14135,2.50682 -4.14135,2.82131 0,0.1095 3.071503,0.36466 6.825557,0.56702 9.443605,0.50906 15.958445,1.55482 19.863145,3.18843 1.83793,0.76893 3.6812,2.06014 3.6812,2.57867 0,0.52907 0.35405,0.57589 -4.04609,-0.53501 -3.76532,-0.95063 -10.22928,-1.54975 -11.492098,-1.06516 -0.3791,0.14547 1.849888,1.56285 7.813518,4.96844 4.58916,2.62069 8.56119,5.06524 8.82673,5.43234 0.26554,0.36709 2.14762,3.42834 4.18238,6.80278 2.03477,3.37442 4.92196,8.13698 6.41597,10.58344 l 2.71639,4.44812 6e-4,33.45409 6.2e-4,36.46969 -76.915789,0.019 -0.841494,-3.45113 c -0.395624,-1.62253 -0.916339,-5.15676 -1.39619,-7.80382 -0.740504,-4.08493 -0.829331,-5.11734 -0.587332,-6.82618 0.910105,-6.42651 3.074418,-11.23803 6.690315,-14.87336 1.150595,-1.15677 4.097314,-3.43457 6.7881,-5.24716 7.295072,-4.91416 11.451804,-9.33759 12.919716,-13.74864 0.556736,-1.673 0.632746,-2.47446 0.518284,-5.4648 l -0.134132,-3.50428 2.746961,2.94621 c 1.510825,1.62043 2.847063,2.83421 2.969412,2.69731 0.368813,-0.41268 2.15978,-5.63697 2.635585,-7.68802 0.539885,-2.32729 0.214185,-4.07129 -1.665592,-8.91867 -0.665868,-1.71705 -1.136351,-3.12193 -1.045524,-3.12193 0.228098,0 9.040045,4.61197 9.480585,4.96192 0.75522,0.59993 0.59987,-0.31334 -0.5166,-3.03698 -2.547706,-6.21516 -5.059516,-10.68175 -6.687412,-11.89181 -1.060595,-0.78838 -4.263766,-0.97229 -8.232766,-0.47271 -2.711108,0.34125 -2.943702,0.32765 -3.34002,-0.19531 -0.650859,-0.85882 -0.575458,-0.94272 1.318406,-1.46708 11.133963,-3.08275 16.254672,-6.20135 15.550922,-9.47077 -0.32913,-1.52904 -1.009469,-2.64914 -2.685366,-4.42115 -3.027729,-3.20139 -8.047607,-6.32213 -11.69956,-7.27334 -2.166355,-0.56426 -4.663504,-0.22485 -9.038691,1.22854 -4.092784,1.35958 -7.216922,3.03754 -8.417649,4.52107 -0.861652,1.0646 -0.893062,1.186 -0.427309,1.65175 0.440657,0.44065 0.797722,0.46129 2.893336,0.16723 1.882004,-0.26409 3.131409,-0.70405 5.87223,-2.06782 l 3.481577,-1.73236 1.736759,0.68497 c 5.257535,2.07357 9.866082,5.18487 9.866082,6.66074 0,1.04917 -1.202857,1.87946 -3.915139,2.7025 -3.301349,1.00178 -4.831775,1.74607 -6.158354,2.99498 -2.637655,2.48322 -2.802414,4.88878 -0.664834,9.70677 2.983494,6.72461 2.74823,5.75146 2.744074,11.35037 l -0.0035,5.06165 -0.762043,-0.92031 c -1.567713,-1.89328 -5.520452,-8.08016 -7.019485,-10.987 l -1.552791,-3.01108 0.01044,-5.65508 c 0.0061,-3.11029 -0.02278,-5.65509 -0.06339,-5.65509 -0.04061,0 -0.666503,0.55663 -1.390903,1.23693 -1.305996,1.22652 -1.332588,1.23537 -3.157695,1.05257 -2.365791,-0.23696 -3.734963,-0.66712 -3.955896,-1.24286 -0.106183,-0.27671 0.322874,-0.99828 1.08563,-1.82577 l 1.261187,-1.36823 h -1.864403 c -1.852716,0 -1.871699,-0.009 -3.030042,-1.44569 -2.759298,-3.42222 -2.824366,-3.46309 -5.50639,-3.45804 -3.074011,0.006 -5.462843,0.57617 -9.051534,2.16126 -1.576492,0.69632 -3.518979,1.5553 -4.316634,1.90885 -1.482704,0.65719 -2.138381,0.57251 -1.502223,-0.19401 0.195784,-0.2359 1.642502,-1.2073 3.214926,-2.15865 1.572428,-0.95136 3.165899,-2.05645 3.541048,-2.45578 l 0.682093,-0.72605 -0.83847,-0.65955 c -2.039526,-1.60429 -6.483673,-2.89909 -10.038943,-2.92485 -2.167051,-0.0157 -2.461722,0.0539 -2.990975,0.7068 -0.765248,0.94397 -0.740847,1.75516 0.103135,3.42884 0.649112,1.28722 0.763315,1.36724 1.917292,1.34324 0.696808,-0.0145 2.327144,-0.51161 3.772751,-1.15038 1.400126,-0.61867 2.705784,-1.12486 2.901461,-1.12486 0.638274,0 -2.299145,2.73907 -6.13737,5.72294 l -3.757892,2.92142 -0.0029,2.96353 -0.0029,2.96353 -2.829381,1.53383 c -7.665093,4.15532 -12.4938473,7.41601 -15.4175293,10.41094 -1.975485,2.02363 -4.1413497,5.07392 -4.1413497,5.83247 0,0.0927 2.6973757,0.16861 5.9941707,0.16861 5.4461233,0 6.1073753,-0.0577 7.2323273,-0.63166 1.55445,-0.79302 2.9239,-0.70838 2.774754,0.17151 -0.0572,0.33744 -0.379058,1.06218 -0.715245,1.61052 -0.57322,0.93497 -0.719029,0.997 -2.343728,0.997 h -1.732481 l -2.502482,2.48948 -2.5024813,2.48948 -1.764978,-1.30386 -1.764977,-1.30387 0.146166,3.03544 c 0.08039,1.66948 0.322409,3.3792 0.537816,3.79934 0.42855,0.83589 4.000782,4.5985 4.36582,4.5985 0.124642,0 0.3920603,-0.55218 0.5942603,-1.22707 0.202202,-0.67489 0.429456,-1.22707 0.505011,-1.22707 0.07556,0 0.662179,0.41565 1.303607,0.92368 1.916849,1.51817 6.129415,3.60098 8.585206,4.24477 3.972956,1.04152 4.225278,1.0513 4.792367,0.18581 l 0.501251,-0.76501 1.341159,0.78598 c 1.440021,0.84391 1.624204,0.66346 0.850314,-0.83308 l -0.490839,-0.94918 1.334448,0.21217 c 0.733948,0.11669 1.645051,0.28955 2.024675,0.38414 0.813032,0.20256 0.8626,-0.11523 0.247573,-1.5872 -0.389652,-0.93257 -0.387029,-1.11504 0.02191,-1.52398 0.566156,-0.56616 0.657351,-0.56626 3.313862,-0.003 2.002376,0.4242 3.105659,0.40502 1.828977,-0.0318 -0.319412,-0.10928 -1.287754,-0.51091 -2.151871,-0.89252 l -1.571123,-0.6938 -0.136042,-1.88079 c -0.115375,-1.59503 -0.329127,-2.15458 -1.406875,-3.68282 l -1.27083,-1.80204 2.517845,-0.36555 c 3.302537,-0.47947 7.803449,-1.40762 8.959946,-1.84765 0.506165,-0.19259 1.70316,-1.03084 2.659986,-1.86277 1.705332,-1.48274 1.779547,-1.51261 3.757892,-1.51261 2.361978,0 2.305603,-0.14286 1.372066,3.47671 -0.86183,3.34152 -1.484374,6.94711 -1.287896,7.45911 0.234592,0.61134 1.861995,0.50416 3.360663,-0.22134 2.028949,-0.9822 4.232496,-3.6317 5.873723,-7.06242 0.793374,-1.65844 1.533495,-3.02056 1.644713,-3.02693 0.414614,-0.0237 0.951628,4.29139 0.809549,6.50522 -0.280664,4.37331 -1.362268,5.89772 -11.482905,16.18392 -3.949921,4.01454 -5.345618,6.00916 -5.688319,8.12932 -0.151509,0.93731 1.001096,0.68539 4.195561,-0.917 3.72463,-1.86832 7.549019,-4.80723 11.825346,-9.08737 4.96341,-4.96783 5.052838,-5.17744 5.02415,-11.77607 -0.01757,-4.0395 -0.211567,-6.45973 -0.860653,-10.73684 -0.460892,-3.03699 -0.917158,-5.86691 -1.013924,-6.28871 -0.631381,-2.75208 2.950215,5.06717 4.537876,9.907 2.254694,6.87319 2.646942,10.91959 1.495095,15.42325 -1.434816,5.61007 -5.478773,9.71624 -14.105639,14.32261 -1.434134,0.76576 -3.642855,2.00378 -4.908267,2.75117 -1.265412,0.74739 -3.566865,2.01204 -5.114341,2.81036 -5.202164,2.68369 -8.37337,6.37679 -8.380395,9.75958 -0.0089,4.29988 4.768805,11.36492 11.769658,17.40428 1.454958,1.25513 3.082294,2.91396 3.082294,2.91396 H 0 C 3e-7,253.35802 0.2702472,152.97307 0.2702472,152.97307 Z M 73.649194,293.08875 c 0.462726,-1.39195 1.367258,-3.63518 2.010074,-4.98496 1.351232,-2.83731 2.986293,-4.5265 10.732063,-11.0874 2.615184,-2.21513 5.338904,-4.7206 6.052704,-5.56768 1.32187,-1.56868 2.734957,-4.15502 4.224967,-7.73286 0.45672,-1.0967 0.87166,-2.03825 0.92208,-2.09234 0.0504,-0.0541 0.40944,1.64028 0.79782,3.76528 0.38838,2.12498 0.80238,4.0193 0.91999,4.2096 0.27853,0.45067 2.417678,-0.79439 4.867078,-2.8328 5.50149,-4.57839 9.0027,-9.47978 10.94386,-15.32042 0.84598,-2.54545 0.8667,-2.76958 0.87054,-9.41772 0.002,-3.74564 0.1,-6.71361 0.21731,-6.5955 0.38958,0.39207 8.22271,13.08498 8.22271,13.32418 0,0.1292 0.1128,0.23491 0.25067,0.23491 0.60451,0 2.20245,-8.70853 2.20303,-12.00628 7.3e-4,-4.06873 -2.05158,-9.79101 -5.2659,-14.68243 -2.15858,-3.28483 -7.86034,-8.75331 -11.9126,-11.42517 -1.9403,-1.27935 -4.46579,-2.78487 -5.61221,-3.34561 -2.21532,-1.08356 -2.65436,-0.99868 -2.66579,0.51538 -0.003,0.34253 -0.82021,3.86267 -1.816948,7.82255 -2.77179,11.0118 -5.639317,18.52174 -9.074267,23.76518 -2.140735,3.26781 -3.415984,4.48623 -11.35406,10.84803 -15.923983,12.76194 -20.346579,17.76226 -22.140843,25.03311 -0.421561,1.70827 -0.448509,2.46583 -0.16861,4.73917 0.566476,4.60082 2.7635,9.88291 5.284032,12.70386 l 0.858609,0.96096 0.344291,-1.37416 c 1.897916,-7.57511 3.624066,-12.98976 5.266197,-16.5192 1.371432,-2.94764 3.373689,-5.08148 8.056505,-8.58591 2.364774,-1.7697 10.021012,-6.99005 11.549437,-7.8749 0.253081,-0.14651 -1.215735,1.5211 -3.264044,3.70582 -9.243681,9.85931 -13.96562,15.95473 -15.286252,19.73259 -0.674799,1.93035 -0.610502,5.78686 0.131688,7.89852 0.618294,1.75915 2.350626,4.71703 2.762622,4.71703 0.127549,0 0.610511,-1.13887 1.073247,-2.53083 z m -35.368855,-1.4807 c -3.586581,-5.4819 -6.676632,-10.78306 -7.510924,-12.88542 -0.440615,-1.11032 -1.376993,-4.00927 -2.080839,-6.4421 -0.703845,-2.43283 -1.331446,-4.48229 -1.394668,-4.55436 -0.171679,-0.19568 -1.867264,1.46532 -3.215114,3.14955 -1.445243,1.80592 -1.4953,2.66578 -0.267866,4.60124 0.544695,0.85889 0.920301,1.86538 0.920301,2.46608 0,1.41811 2.238295,4.48812 6.184274,8.48222 3.050948,3.08817 9.198236,8.63886 9.373388,8.46371 0.04589,-0.0459 -0.857959,-1.5223 -2.008552,-3.28092 z M 21.991341,257.39726 c 3.02191,-0.88873 3.41662,-1.82682 1.610023,-3.82651 -1.107986,-1.2264 -5.260483,-4.10875 -8.774093,-6.09031 -2.070448,-1.16766 -2.041241,-1.17957 -4.044279,1.64787 -1.6796933,2.371 -2.6171633,4.23483 -2.6171633,5.20332 0,1.33756 2.5974533,2.75329 6.1353323,3.34404 1.974273,0.32965 6.13473,0.17904 7.69018,-0.27841 z M 51.52533,192.29953 c 5.549769,-4.37921 11.20384,-8.55954 17.073539,-12.62325 1.729845,-1.19761 6.409305,-3.99024 8.137054,-4.85605 2.635307,-1.32063 3.958409,-1.60741 8.524804,-1.84779 l 4.044888,-0.21292 -5.368416,-1.45538 c -9.503979,-2.57651 -10.122169,-2.67191 -17.361466,-2.67934 -5.787872,-0.006 -6.519967,0.0501 -6.932563,0.53021 -0.44857,0.52201 -4.65159,7.55761 -9.61326,16.09203 -1.344509,2.31264 -2.526794,4.21076 -2.6273,4.21803 -0.203083,0.0147 -0.571255,-6.37067 -0.600615,-10.41684 -0.0104,-1.43414 -0.114504,-3.103 -0.231321,-3.70859 l -0.212396,-1.10107 -3.117921,0.70044 c -3.0781,0.6915 -7.465529,2.57689 -7.465529,3.20812 0,0.17505 1.805162,3.7601 4.011471,7.96681 l 4.011472,7.64855 1.280253,0.34815 c 0.70414,0.19148 1.625366,0.45905 2.047171,0.59459 0.421804,0.13554 0.814345,0.25733 0.872318,0.27065 0.05797,0.0133 1.645488,-1.19104 3.527817,-2.67635 z m -11.762535,0.72048 c 0,-0.60004 -2.624984,-7.29346 -3.373093,-8.60102 -1.490901,-2.60583 -2.500412,-3.53016 -3.855453,-3.53016 -2.303326,0 -5.654727,3.03441 -5.228227,4.73371 0.104798,0.41755 0.853729,1.62847 1.664292,2.69093 l 1.47375,1.93174 4.122524,1.43592 c 3.827316,1.33309 5.196207,1.68581 5.196207,1.33888 z M 20.91404,223.46115 c -0.26265,-0.37499 -0.469737,-0.82364 -0.460192,-0.997 0.01953,-0.35472 10.760066,-7.21745 11.295701,-7.21745 0.64968,0 0.343337,1.44281 -0.575727,2.71153 -1.185438,1.63646 -3.105218,3.01546 -6.644971,4.77318 -1.563425,0.77634 -2.908893,1.41153 -2.989929,1.41153 -0.08103,0 -0.362232,-0.30681 -0.624882,-0.68179 z m 25.416028,-5.30017 c -0.339785,-0.51858 -0.783222,-0.76691 -1.369416,-0.76691 -1.023542,0 -1.357816,-0.40368 -0.945047,-1.14126 0.251441,-0.4493 0.673789,-0.51715 2.700811,-0.43389 1.32152,0.0543 2.449657,0.1442 2.506973,0.19979 0.149025,0.14455 -1.899879,2.88286 -2.167815,2.89723 -0.122652,0.007 -0.449128,-0.33315 -0.725506,-0.75496 z m -9.164066,-3.58584 c -0.07575,-0.22116 -0.178175,-0.8118 -0.227608,-1.31251 -0.08304,-0.84107 -1.260204,-1.97725 -2.482031,-2.3956 -0.495744,-0.16974 0.652275,-2.55201 1.932443,-4.01005 0.972969,-1.10815 4.150989,-2.89943 4.508958,-2.54146 0.106893,0.10689 -0.308881,0.69759 -0.923947,1.31265 -0.615065,0.61507 -1.201701,1.38107 -1.303633,1.70223 -0.279778,0.88151 0.624249,2.00116 2.649908,3.28195 1.788987,1.13115 2.010822,1.56669 0.797972,1.56669 -0.867706,0 -2.695826,1.47496 -2.593738,2.09268 0.06491,0.39279 -0.188191,0.53744 -1.067756,0.61018 -0.74713,0.0618 -1.201308,-0.0462 -1.290568,-0.30676 z"
       id="path4510"
       inkscape:connector-curvature="0"
       sodipodi:nodetypes="cccccccssscsccccsssssssssccsccccssccscscscscscsssccccssccsscssscccccsccsccsccsccscccscccccccsccccscssccsscccccscscscsccccccsccccccccccccsscccccsccsscccssccsscccccssccccscccssccsccscsccccsccccscscssccscsccsssccscssssscscssccccssscsccsscssscssscscssscsccccccccscccssccc"
       inkscape:export-xdpi="25.4"
       inkscape:export-ydpi="25.4" />
    <text
       xml:space="preserve"
       style="font-style:normal;font-weight:normal;font-size:70.22364807px;line-height:1.25;font-family:sans-serif;letter-spacing:0px;word-spacing:0px;fill:#edd400;fill-opacity:1;stroke:none;stroke-width:1.75559127;stroke-opacity:1"
       x="155.70274"
       y="231.40373"
       id="text4518"><tspan
         sodipodi:role="line"
         id="tspan4516"
         x="155.70274"
         y="231.40373"
         style="font-style:normal;font-variant:normal;font-weight:normal;font-stretch:normal;font-family:'URW Chancery L';-inkscape-font-specification:'URW Chancery L';fill:#edd400;fill-opacity:1;stroke:none;stroke-width:1.75559127;stroke-opacity:1">Mi Art</tspan></text>
    <text
       xml:space="preserve"
       style="font-style:normal;font-weight:normal;font-size:29.54896545px;line-height:1.25;font-family:sans-serif;letter-spacing:0px;word-spacing:0px;fill:#edd400;fill-opacity:1;stroke:none;stroke-width:0.73872405;stroke-opacity:1"
       x="161.05995"
       y="263.80655"
       id="text4526"><tspan
         sodipodi:role="line"
         x="161.05995"
         y="263.80655"
         style="fill:#edd400;fill-opacity:1;stroke:none;stroke-width:0.73872405;stroke-opacity:1"
         id="tspan4528">tatoo studio</tspan></text>
  </g>
</svg>
